<svg id="visual" viewBox="0 0 900 100" width="900" height="100" xmlns="http://www.w3.org/2000/svg" xmlns:xlink="http://www.w3.org/1999/xlink" version="1.1"><rect x="0" y="0" width="900" height="100" fill="#000000"></rect><path d="M0 73L13.7 70.5C27.3 68 54.7 63 82 61.3C109.3 59.7 136.7 61.3 163.8 63.5C191 65.7 218 68.3 245.2 73.2C272.3 78 299.7 85 327 81.8C354.3 78.7 381.7 65.3 409 64C436.3 62.7 463.7 73.3 491 73C518.3 72.7 545.7 61.3 573 54.7C600.3 48 627.7 46 654.8 50.5C682 55 709 66 736.2 68.5C763.3 71 790.7 65 818 61.8C845.3 58.7 872.7 58.3 886.3 58.2L900 58L900 101L886.3 101C872.7 101 845.3 101 818 101C790.7 101 763.3 101 736.2 101C709 101 682 101 654.8 101C627.7 101 600.3 101 573 101C545.7 101 518.3 101 491 101C463.7 101 436.3 101 409 101C381.7 101 354.3 101 327 101C299.7 101 272.3 101 245.2 101C218 101 191 101 163.8 101C136.7 101 109.3 101 82 101C54.7 101 27.3 101 13.7 101L0 101Z" fill="#FFFFFF" stroke-linecap="round" stroke-linejoin="miter"></path></svg>