<svg id="visual" viewBox="0 0 900 100" width="900" height="100" xmlns="http://www.w3.org/2000/svg" xmlns:xlink="http://www.w3.org/1999/xlink" version="1.1"><rect x="0" y="0" width="900" height="100" fill="#000000"></rect><path d="M0 43L56 75L113 48L169 55L225 41L281 73L338 39L394 69L450 73L506 74L563 47L619 60L675 68L731 49L788 56L844 71L900 45L900 101L844 101L788 101L731 101L675 101L619 101L563 101L506 101L450 101L394 101L338 101L281 101L225 101L169 101L113 101L56 101L0 101Z" fill="#FFFFFF" stroke-linecap="square" stroke-linejoin="bevel"></path></svg>